<!-- created by svgstack.com | Attribution is required. --><svg width="201" height="201" viewBox="0 0 201 201" fill="none" xmlns="http://www.w3.org/2000/svg"><path d="M142.678 95.6898C143.889 95.5335 145.1 95.5335 146.311 95.6898C146.975 94.2054 147.092 91.5882 146.506 88.8147C145.646 84.6351 144.436 82.096 142.014 82.4866C139.592 82.8772 139.475 85.9241 140.373 90.1038C140.803 92.4085 141.701 94.4398 142.678 95.6898ZM121.701 99.0101C123.459 99.7913 124.514 100.299 124.943 99.8304C125.686 99.0882 123.576 96.1585 120.217 94.7132C116.232 93.0726 111.701 93.6194 108.225 96.1585C107.053 97.0179 105.959 98.1898 106.115 98.9319C106.467 100.377 110.021 97.8773 114.982 97.5648C117.678 97.3694 119.943 98.2288 121.701 99.0101ZM118.186 101.002C114.631 101.549 112.326 103.541 112.912 104.948C113.264 105.065 113.381 105.26 114.943 104.635C117.287 103.737 119.787 103.502 122.287 103.854C123.42 103.971 123.967 104.049 124.24 103.659C124.748 102.838 121.975 100.573 118.186 101.002ZM139.357 107.721C140.686 105.026 135.1 102.252 133.771 104.987C132.443 107.682 138.068 110.416 139.357 107.721ZM145.49 99.7132C142.482 99.6741 142.365 105.885 145.373 105.963C148.42 105.963 148.537 99.7523 145.49 99.7132ZM59.8652 130.573C59.3574 130.69 57.5215 131.159 56.5449 129.635C54.5136 126.51 60.8808 121.666 57.7168 115.612C54.1621 108.776 46.8183 110.299 44.0058 113.424C40.6074 117.174 40.6074 122.643 42.0527 122.838C43.7324 123.073 43.6543 120.299 44.9433 118.268C46.4668 115.924 49.5527 115.26 51.8965 116.784C51.8965 116.784 51.9355 116.784 51.9355 116.823C56.4668 119.791 52.4824 123.776 52.834 128.034C53.3808 134.557 60.0605 134.44 61.2715 131.549C61.4277 131.276 61.3886 130.885 61.1933 130.651C61.1933 131.08 61.4277 130.221 59.8652 130.573ZM177.209 123.893C175.881 119.284 176.193 120.299 174.553 115.846C175.529 114.401 180.529 106.432 173.342 98.9319C169.279 94.6741 160.061 92.4476 157.248 91.6663C156.662 87.2132 159.084 68.6976 148.811 59.1663C156.936 50.7288 162.014 41.4319 162.014 33.4632C161.975 18.1507 143.146 13.5022 119.943 23.1116L115.021 25.1819C114.982 25.1429 106.115 16.471 105.998 16.3538C79.5918 -6.69307 -3.1426 85.221 23.3027 107.565L29.084 112.448C27.5215 116.627 26.9746 121.119 27.4824 125.573C28.8105 138.659 41.584 149.244 53.9277 149.205C76.5449 201.315 158.811 201.393 180.1 150.377C180.764 148.619 183.654 140.729 183.654 133.776C183.654 126.823 179.709 123.893 177.209 123.893ZM53.459 142.76C44.5136 142.526 34.8652 134.479 33.9277 124.948C31.5058 100.963 62.9902 95.4944 66.8183 120.104C68.6152 131.705 64.9824 142.994 53.459 142.76ZM46.2324 98.0335C40.2949 99.2054 35.0605 102.565 31.8574 107.213C29.9433 105.612 26.3886 102.526 25.7636 101.354C20.6855 91.6273 31.3496 72.7601 38.8105 62.1351C57.248 35.8069 86.1152 15.8851 99.5136 19.4788C101.701 20.1038 108.889 28.4241 108.889 28.4241C108.889 28.4241 95.5293 35.846 83.1465 46.1976C66.3886 59.0882 53.7715 77.7601 46.2324 98.0335ZM139.748 137.643C139.748 137.643 125.764 139.713 112.521 134.869C114.943 126.979 123.107 137.252 150.256 129.479C156.232 127.76 164.084 124.401 170.217 119.557C171.545 122.604 172.482 125.807 172.99 129.049C174.436 128.776 178.576 128.854 177.482 136.119C176.193 143.893 172.873 150.221 167.326 156.041C163.85 159.791 159.709 162.916 155.139 165.182C152.6 166.51 149.904 167.643 147.17 168.541C126.232 175.377 104.787 167.877 97.834 151.705C97.2871 150.455 96.8183 149.205 96.4277 147.877C93.498 137.213 95.998 124.44 103.811 116.393C104.279 115.885 104.787 115.26 104.787 114.518C104.709 113.854 104.475 113.229 104.045 112.721C101.311 108.737 91.8183 101.979 93.7324 88.8929C95.0996 79.4788 103.303 72.8773 110.998 73.2679L112.951 73.3851C116.271 73.5804 119.162 74.0101 121.896 74.1273C126.467 74.3226 130.607 73.6585 135.451 69.596C137.092 68.2288 138.42 67.0179 140.646 66.6663C142.482 66.1976 144.396 66.5491 145.959 67.5257C149.865 70.1429 150.412 76.4319 150.607 81.0413C150.725 83.6585 151.037 90.0648 151.154 91.8616C151.389 96.0413 152.482 96.6273 154.709 97.3304C155.959 97.7601 157.131 98.0335 158.811 98.5413C163.967 99.9866 167.014 101.471 169.006 103.346C170.021 104.323 170.646 105.612 170.881 106.979C171.506 111.432 167.443 116.94 156.662 121.901C138.381 130.377 119.982 127.565 117.326 127.252C109.436 126.198 104.943 136.393 109.67 143.346C118.537 156.432 157.6 151.159 168.928 134.987C169.201 134.596 168.967 134.362 168.654 134.596C152.287 145.768 130.646 149.557 118.342 144.791C116.467 144.049 112.561 142.252 112.092 138.268C129.162 143.541 139.904 138.541 139.904 138.541C139.904 138.541 140.764 137.526 139.748 137.643ZM80.2949 62.0179C86.8574 54.4398 94.9043 47.8382 102.17 44.1663C102.287 44.0882 102.482 44.1273 102.561 44.2835C102.6 44.3616 102.6 44.4788 102.561 44.5569C101.975 45.6116 100.881 47.8382 100.529 49.5179C100.49 49.6741 100.607 49.8304 100.764 49.8694C100.842 49.9085 100.92 49.8694 100.998 49.8304C105.49 46.7835 113.342 43.4632 120.178 43.0726C120.334 43.0726 120.49 43.1898 120.49 43.346C120.49 43.4632 120.451 43.5413 120.373 43.6194C119.24 44.4788 118.225 45.4944 117.365 46.6663C117.287 46.7835 117.287 46.9788 117.443 47.0569C117.482 47.096 117.561 47.096 117.6 47.096C122.404 47.1351 129.201 48.8147 133.654 51.3147C133.967 51.471 133.732 52.0569 133.42 51.9788C106.193 45.7288 85.2168 59.2444 80.7636 62.4866C80.6074 62.5648 80.4511 62.5257 80.334 62.4085C80.2168 62.2523 80.2168 62.096 80.2949 62.0179Z" fill="black"/></svg> 