<!-- created by svgstack.com | Attribution is required. --><svg xmlns="http://www.w3.org/2000/svg" width="1024" height="1024"><path fill="#424177" d="M389.124 120.265c41.938-4.737 97.664 19.633 122.874 51.996 27.298-34.8 80.288-54.052 123.442-52.028 11.952.56 47.414 5.844 55.772 15.577 12.604 14.676-14.742 21.391-22.73 25.333-5.698 2.812-10.944 6.14-16.03 9.937 56.228 2.71 109.552 33.838 131.994 86.39 9.184 21.504 22.204 42.908 21.644 65.9 23.214 24.842 41.696 51.078 47.374 85.538 3.29 19.964 2.566 43.462-21.11 24.186 14.554 39.224 26.11 59.042 24.246 105.418-.398 9.876-2.342 34.012-9.926 40.624-11.15 9.72-21.63-12.024-26.476-18.73 4.298 35.836 2.408 71.406-9.356 105.744-3.552 10.366-15.578 41.1-24.552 45.176-17.852 8.11-17.054-23.97-21.222-34.282-6.62 34.486-33.706 109.33-65.048 129.296-6.36 1.002-10.636-1.006-15.506-5.164-.516-5.142-.096-10.58 0-15.752-10.83 20.284-59.038 80.378-82.574 85.766-16.842-.902-12.42-20.42-12.444-32.408-19.486 20.718-50.594 53.824-77.498 60.342-16.256-3.898-49.98-30.734-62.13-43.058-5.42-5.498-9.406-12.868-15.798-17.284.536 28.644-.472 46.234-29.966 22.148-31.906-26.056-41.512-41.956-62.91-73.618-2.2 25.09-13.17 22.71-28.594 5.532-23.746-26.448-50.166-74.504-52.918-110.028-5.486 7.992-6.578 22.836-13.218 27.456-12.31 8.568-22.66-20-25.952-27.55-15.784-36.226-24.568-81.534-16.524-121.01-4.367 4.21-13.536 16.674-18.119 18.492-14.75 5.85-16.79-29.148-17.468-36.902-3.61-41.306 5.747-73.51 23.767-110.208-19.253 16.456-22.517 2.644-21.14-16.002 2.67-36.11 23.607-70.416 50.462-93.722-.254-13.37 1.58-26.74 7.018-39.048l12.97-29.742c22.118-50.71 76.008-83.297 131.076-82.32-12.67-10.011-41.02-17.978-44.262-29.278 4.702-18.964 45.138-22.797 60.832-22.717"/><path fill="#FC993F" d="M372.554 144.247c56.534-7.849 106.146 17.562 139.444 63.647 30.9-43.835 86.34-73.602 140.454-63.647-8.384 4.022-64.06 43.248-41.042 51.698 6.006 2.205 20.866-1.598 28.138-1.922 31.662-1.41 64.654 9.239 89.44 28.903 6.522 5.174 11.988 11.504 18.694 16.468-6.88-.182-13.572-1.83-20.46-2.012-17.22.138-34.59 5.434-46.848 17.984-15.072 15.432-23.092 46.996-5.86 63.94 3.15 3.098 7.106 5.61 10.626 8.28 30.622 23.244 29.09 64.318 36.958 71.57 7.514 6.924 23.43 6.136 32.868 3.466 27.312-10.458 33.648-27.168 45.84-50.002 11.972 14.586 21.864 31.906 27.332 50.002-12.102-7.152-42.046-22.766-46.674 0 2.526 9.704 11.214 16.478 17.066 24.274 27.964 37.26 34.234 67.87 33.824 112.162-9.448-7.764-26.456-24.066-39.266-23.134-14.186 1.032-.47 31.372.932 38.354 6.504 32.414 6.078 77.54-8.506 107.498-4.714-8.048-14.592-25.42-23.832-27.652-18.476-4.462-20.038 36.87-22.312 47.368-6.432 29.72-17.834 56.17-33.39 82.218-4.666-10.892-9.162-22.736-21.466-26.502-12.864 4.196-11.994 17.362-17.448 29.31-12.166 26.658-31.438 51.8-53.98 70.548-5.986-24.584-15.16-60.266-36.624-22.662-14.394 25.216-38.38 48.34-64.464 60.888-27.304-15.234-52.298-35.788-66.808-63.854-18.356-35.508-31.524 7.958-33.9 27.344-23.28-23.66-45.256-48.306-56.234-80.16-2.65-7.692-6.832-34.678-20.24-21.126-7.19 7.268-11.192 19.566-13.556 29.316-20.214-23.218-35.01-62.832-40.224-92.224-1.476-8.328-.498-37.214-10.304-37.938-14.196-1.044-23.5 21.292-31.002 28.554l-.702-.144-.406-1.276c-16.39-39.586-17.634-86.246-3.096-126.532 1.594-6.728 9.482-23.172-3.854-23.286-15.276-.13-31.354 15.01-41.162 25.092.15-3.15.02-6.35 0-9.506 3.163-43.108 10.56-72.19 35.36-106.854 3.726-5.208 26.394-25.608 10.178-29.684-12.83-3.224-27.91 3.446-38.775 9.608 5.055-16.436 14.575-39.092 28.199-50.002 8.726 17.522 17.43 32.784 34.21 43.788 11.308 6.092 23.626 11.922 35.846 4.698 11.976-7.08 11.556-21.188 15.13-33.036 7.214-23.916 18.306-32.562 35.366-49.58 33.81-33.728-4.478-78.98-51.194-79.096-6.908.338-13.592 2.156-20.174 4.148 23.746-34.702 67.122-50.556 108.022-49.675 7.184.154 37.302 9.377 33.488-7.397-2.72-11.959-32.798-35.3-43.612-42.223"/><path fill="#ED7B33" d="M800.806 352.62c11.972 14.586 21.864 31.906 27.332 50.002-12.102-7.152-42.046-22.766-46.674 0 2.526 9.704 11.214 16.478 17.066 24.274 27.964 37.26 34.234 67.87 33.824 112.162-9.448-7.764-26.456-24.066-39.266-23.134-14.186 1.032-.47 31.372.932 38.354 6.504 32.414 6.078 77.54-8.506 107.498-4.714-8.048-14.592-25.42-23.832-27.652-18.476-4.462-20.038 36.87-22.312 47.368-6.432 29.72-17.834 56.17-33.39 82.218-4.666-10.892-9.162-22.736-21.466-26.502-12.864 4.196-11.994 17.362-17.448 29.31-12.166 26.658-31.438 51.8-53.98 70.548-5.986-24.584-15.16-60.266-36.624-22.662-14.394 25.216-38.38 48.34-64.464 60.888-27.304-15.234-52.298-35.788-66.808-63.854-18.356-35.508-31.524 7.958-33.9 27.344-23.28-23.66-45.256-48.306-56.234-80.16-2.65-7.692-6.832-34.678-20.24-21.126-7.19 7.268-11.192 19.566-13.556 29.316-20.214-23.218-35.01-62.832-40.224-92.224-1.476-8.328-.498-37.214-10.304-37.938-14.196-1.044-23.5 21.292-31.002 28.554l-.702-.144-.406-1.276c1.372-1.6 3.124-22.134 4.32-27.218 5.968-12.572 19.228-22.674 33.726-19.642 18.94 3.962 17.404 30.388 20.496 44.95 4.65 21.892 14.426 43.47 26.324 62.386 30.292-26.402 36.538-4.896 47.832 20.912 8.62 19.7 21.262 35.138 36.356 50.21 6.588-11.804 19.894-23.362 34.032-15.978 8.714 4.552 24.062 28.506 33.368 37.342 11.112 10.556 23.644 18.296 36.922 25.794 18.966-9.218 37.852-25.76 50.982-42.192 9.536-11.93 14.576-25.004 32.326-23.45 10.32.904 15.99 6.946 22.178 14.408 12.086-11.93 27.148-32.776 35.404-47.682 7.828-14.13 8.89-30.838 28.91-30.334 9.096.23 16.102 4.666 22.238 10.97 9.01-17.748 15.54-36.418 19.354-55.95 7.008-35.876 11.658-68.378 56.076-50.186-2.734-32.044 3.654-53.018-9.89-87.376-4.914-12.468-14.312-33.186 8.46-36.442 11.346-1.624 25.254 3.124 34.208 9.95-4.284-31.53-19.978-61.832-41.392-85.162-3.936-4.288-13.748-11.714-15.886-16.472 27.312-10.458 33.648-27.168 45.84-50.002"/><path fill="#FDB35B" d="M372.554 144.247c56.534-7.849 106.146 17.562 139.444 63.647 30.9-43.835 86.34-73.602 140.454-63.647-8.384 4.022-64.06 43.248-41.042 51.698 6.006 2.205 20.866-1.598 28.138-1.922 31.662-1.41 64.654 9.239 89.44 28.903 6.522 5.174 11.988 11.504 18.694 16.468-6.88-.182-13.572-1.83-20.46-2.012-3.906-1.062-6.232-5.676-9.89-7.698-23.88-13.2-51.672-18.844-78.818-17.056-8.426.556-19.478 3.616-27.638 1.598-14.874-3.676-21.508-20.638-17.524-34.406 2.478-8.559 8.974-12.717 14.378-19.126-30.466 7.294-59.658 23.665-80.556 47.136-5.592 6.28-9.67 13.8-15.176 20.114l-.552-.622c-17.638-20.112-23.52-34.844-50.24-50.16-11.38-6.523-32.422-15.483-45.098-16.407l-.966-.061c7.618 9.08 16.682 17.678 15.636 30.553-2.678 32.969-34.5 21.101-54.746 20.919-20.974-.186-66.98 9.066-81.202 27.228-6.908.338-13.592 2.156-20.174 4.148 23.746-34.702 67.122-50.556 108.022-49.675 7.184.154 37.302 9.377 33.488-7.397-2.72-11.959-32.798-35.3-43.612-42.223"/><path fill="#FDB35B" d="M225.472 352.62c8.726 17.522 17.43 32.784 34.21 43.788 1.418 6.28 6.446 11.91 8.488 18.294-21.18 21.864-56.626 64.444-66.708 94.342-2.513 5.474-7.184 16.046-10.952 20.508 3.163-43.108 10.56-72.19 35.36-106.854 3.726-5.208 26.394-25.608 10.178-29.684-12.83-3.224-27.91 3.446-38.775 9.608 5.055-16.436 14.575-39.092 28.199-50.002"/><path fill="#FDB35B" d="M249.424 519.062c1.886 2.274-9.606 99.008-6.482 117.504-1.196 5.084-2.948 25.618-4.32 27.218-16.39-39.586-17.634-86.246-3.096-126.532 4.568-2.128 10.986-13.848 13.898-18.19"/><path fill="#ED7B33" d="M201.462 509.044c4.088-2.336 7.41-5.682 11.288-8.31 16.534-11.208 39.066-11.8 40.062 11.972-1.07 2.16-2.116 4.302-3.388 6.356-2.912 4.342-9.33 16.062-13.898 18.19 1.594-6.728 9.482-23.172-3.854-23.286-15.276-.13-31.354 15.01-41.162 25.092.15-3.15.02-6.35 0-9.506 3.768-4.462 8.439-15.034 10.952-20.508"/><path fill="#424177" d="M452.428 314.074c20.754-.872 39.508 1.468 59.57 7.028 81.888-21.512 185.578 13.812 198.628 106.284 6.288 44.544-23.2 104.264-45.586 144-13.93 24.726-16.236 17.354-19.99 45.54-3.024 22.708-13.022 28.41-24.804 44.178l-.496.672c-7.352 39.65-19.872 57.706-51.976 81.77-77.132 38.222-150.866-1.052-163.662-84.312-19.792-17.718-26.292-34.688-26.172-61.662-27.488-32.99-59.47-96.328-63.108-139.684-7.158-85.304 57.282-137.47 137.596-143.814"/><path fill="#FECF80" d="M341.194 472.604c-6.926-18.542-5.01-42.458 1.354-60.848 19.476-56.272 88.896-83.486 144.326-72.902 8.628 1.648 16.856 4.784 25.124 7.672 34.9-12.258 64.188-12.884 99.144-.068 24.44 8.96 51.532 25.628 62.824 49.95 1.57 1.59 2.502 4.072 3.074 6.214 32.306 47.068-17.35 129.986-40.276 171.332-4.246-6.412-8.692-11.84-14.38-17.056-7.24-6.166-20.668-11.604-20.444 3.508-6.346-1.634-10.122-4.008-17.06-3.508-6.504-15.738-15.708-25.328-33.09-29.308-24.616-5.64-98.258-11.866-105.688 22.876-7.798 1.592-14.834 6.54-21.906 9.94-2.124-23.372-30.14-3.674-35.072 11.76-14.056-14.314-46.962-79.204-47.93-99.562"/><path fill="#FEE8C5" d="M341.194 472.604c-6.926-18.542-5.01-42.458 1.354-60.848 19.476-56.272 88.896-83.486 144.326-72.902 8.628 1.648 16.856 4.784 25.124 7.672 34.9-12.258 64.188-12.884 99.144-.068 24.44 8.96 51.532 25.628 62.824 49.95-4.356.428-29.148-17.956-35.588-21.248-44.684-22.842-79.808-22.94-127.774-11.342-57.756-22.688-134.894.456-158.294 60.976-5.716 14.786-7.236 29.168-7.488 44.914l-.266-.22c-.06-3.682-.932-13.206.444-16.232l-.254-1.306c-11.728.518-2.31 14.794-3.552 20.654"/><path fill="#FDB35B" d="M677.04 402.622c32.306 47.068-17.35 129.986-40.276 171.332-4.246-6.412-8.692-11.84-14.38-17.056 4.428-4.416 31.166-63.754 34.72-71.618 16.736-37.052 18.34-42.816 19.936-82.658"/><path fill="#424177" d="M401.02 416.596c34.592-2.348 80.328 36.654 51.408 72.28 2.926 5.554 8.962 14.458 7.192 20.856-3.194 11.558-14.166 3.238-18.122-5.476-.808-1.848-2.088-3.64-3.126-5.378-9.596-.086-18.662.262-27.12-4.992-26.896-16.708-16.886-51.854 15.054-58.872-8.658-2.008-26.726 1.402-30.718-4.824-3.656-5.698.522-10.852 5.432-13.594"/><path fill="#FEF6EE" d="M424.036 441.72a10.837 10.837 0 0 1 12.824 10.778 10.84 10.84 0 0 1-9.114 10.58c-5.86.944-11.39-3-12.404-8.848-1.016-5.846 2.86-11.424 8.694-12.51"/><path fill="#424177" d="M615.314 419.166c9.592-1.64 18.392 6.44 12.386 12.896-4.27 4.592-22.694 3.004-29.234 2.952 7.906 3.908 14.874 6.914 20.292 14.216 18.502 24.928-2.796 54.412-32.014 49.648-10.314-2-5.816 8.23-13.718 10.902-15.75 5.324-9.544-13.43-5.252-20.904-18.01-37.192 11.07-64.276 47.54-69.71"/><path fill="#FEF6EE" d="M598.466 442.096c14.318-1.012 19.228 14.598 6.016 21.324-15.08 1.15-19.04-15.238-6.016-21.324"/><path fill="#FEE8C5" d="M511.998 653.126c29.7 11.574 50.002 19.544 82.744 18.816-1.302 4.728-2.572 8.754-5.246 12.908-14.114 39.894-65.858 60.194-105.228 46.034-19.372-6.968-40.492-23.282-47.044-43.476-4.366-5.256-5.788-10.648-7.484-17.122 32.418 3.266 52.266-4.066 82.258-17.16"/><path fill="#FECF80" d="M437.224 687.408c42.478 23.29 98.598 24.176 141.73 2.592 3.5-1.752 6.858-3.79 10.542-5.15-14.114 39.894-65.858 60.194-105.228 46.034-19.372-6.968-40.492-23.282-47.044-43.476"/><path fill="#FEE8C5" d="M424.196 560.406c7.072-3.4 14.108-8.348 21.906-9.94 2.182 29.558 32.828 42.87 54.6 56.75v25.67c-19.13 9.358-50.256 20.4-71.314 13.208-38.018-12.982-32.226-69.276-5.192-85.688"/><path fill="#FEE8C5" d="M584.88 556.898c6.938-.5 10.714 1.874 17.06 3.508 16.998 12.96 25.142 43.928 17.808 63.34-16.242 42.984-67.36 20.5-96.66 9.14v-25.67c24.454-11.44 46.038-28.32 61.792-50.318"/><path fill="#6866A1" d="M687.886 298.274c-2.464-53.958 97.29-57.73 93.578 37.714-5.472 21.556-17.814 40.812-40.648 46.496-8.892-28.996-15.278-56.184-42.536-75.376-4.672-3.288-8.224-3.058-10.394-8.834"/><path fill="#8F8EC9" d="M687.886 298.274c-2.464-53.958 97.29-57.73 93.578 37.714-4.722-1.456-9.884-43.464-47.806-51.076-22.206-4.456-29.62 2.76-45.772 13.362"/><path fill="#6866A1" d="M249.424 346.526c-18.972-40.878 14.724-97.532 62.6-82.372 12.524 3.964 25.92 17.438 21.236 31.552-4.202 7.516-11.444 12.068-17.384 18.06-18.788 18.952-27.87 42.826-32.158 68.718-15.016-5.542-31.75-19.062-34.294-35.958"/><path fill="#8F8EC9" d="M249.424 346.526c-18.972-40.878 14.724-97.532 62.6-82.372 12.524 3.964 25.92 17.438 21.236 31.552-4.104-2.21-8.284-4.67-12.642-6.334-35.742-13.66-65.788 12.97-70.294 48.17-.34 2.658.14 6.732-.9 8.984"/></svg>